<?xml version="1.0" encoding="UTF-8" standalone="no"?>
<svg width="110px" height="25px" viewBox="0 0 110 25" version="1.1" xmlns="http://www.w3.org/2000/svg" xmlns:xlink="http://www.w3.org/1999/xlink" xmlns:sketch="http://www.bohemiancoding.com/sketch/ns">
    <!-- Generator: Sketch 3.5.1 (25234) - http://www.bohemiancoding.com/sketch -->
    <title>Page 1 Copy</title>
    <desc>Created with Sketch.</desc>
    <defs>
        <path id="path-1" d="M0,0.300470426 L109.90358,0.300470426 L109.90358,24.7286822 L0,24.7286822 L0,0.300470426 Z"></path>
        <path id="path-3" d="M0,0.300470426 L109.90358,0.300470426 L109.90358,24.7286822 L0,24.7286822"></path>
        <path id="path-5" d="M0,0.300470426 L109.90358,0.300470426 L109.90358,24.7286822 L0,24.7286822 L0,0.300470426 Z"></path>
    </defs>
    <g id="Page-1" stroke="none" stroke-width="1" fill="none" fill-rule="evenodd" sketch:type="MSPage">
        <g id="Page-1-Copy" sketch:type="MSLayerGroup">
            <g id="Page-1">
                <path d="M0,19.9658702 L2.1942284,19.9658702 L2.1942284,0.578583413 L0,0.578583413 L0,19.9658702 Z" id="Fill-1" fill="#FEFEFE" sketch:type="MSShapeGroup"></path>
                <g id="Group-16">
                    <g id="Group-4">
                        <mask id="mask-2" sketch:name="Clip 3" fill="white">
                            <use xlink:href="#path-1"></use>
                        </mask>
                        <g id="Clip-3"></g>
                        <path d="M107.988664,2.36480726 L108.296596,2.36480726 C108.47925,2.36480726 108.67209,2.39360093 108.67209,2.61446533 C108.67209,2.86412339 108.498602,2.89291706 108.296596,2.89291706 L107.988664,2.89291706 L107.988664,2.36480726 Z M107.651873,3.93965169 L107.988664,3.93965169 L107.988664,3.15239885 L108.200176,3.15239885 L108.681596,3.93965169 L109.028231,3.93965169 L108.536966,3.13309016 C108.835392,3.10429649 109.018386,2.96032813 109.018386,2.643259 C109.018386,2.24963258 108.777676,2.10566422 108.335299,2.10566422 L107.651873,2.10566422 L107.651873,3.93965169 Z M108.277244,4.33327811 C107.594157,4.33327811 107.045515,3.78585962 107.045515,3.02740045 C107.045515,2.26894128 107.594157,1.72152278 108.277244,1.72152278 C108.96033,1.72152278 109.509312,2.26894128 109.509312,3.02740045 C109.509312,3.78585962 108.96033,4.33327811 108.277244,4.33327811 L108.277244,4.33327811 Z M108.277244,4.65034724 C109.172182,4.65034724 109.903818,3.920343 109.903818,3.02740045 C109.903818,2.1344579 109.172182,1.40445365 108.277244,1.40445365 C107.382306,1.40445365 106.651009,2.1344579 106.651009,3.02740045 C106.651009,3.920343 107.382306,4.65034724 108.277244,4.65034724 L108.277244,4.65034724 Z" id="Fill-2" fill="#FEFEFE" sketch:type="MSShapeGroup" mask="url(#mask-2)"></path>
                    </g>
                    <g id="Group-7">
                        <mask id="mask-4" sketch:name="Clip 6" fill="white">
                            <use xlink:href="#path-3"></use>
                        </mask>
                        <g id="Clip-6"></g>
                        <path d="M98.6151019,20.2349725 C102.473929,20.2349725 105.255503,18.0740922 105.255503,14.7516413 L105.255503,14.7038777 C105.255503,11.7367746 103.253435,10.1619301 98.9226944,9.21140023 C94.6500093,8.29914899 93.6491451,7.28120803 93.6491451,5.44722056 L93.6491451,5.38963322 C93.6491451,3.65151173 95.2658735,2.26873803 97.7873858,2.26873803 C99.7891142,2.26873803 101.588836,2.90253754 103.398065,4.37169226 L104.668157,2.68167314 C102.695627,1.09734374 100.674546,0.300267176 97.8454414,0.300267176 C94.1495772,0.300267176 91.4549167,2.53770479 91.4549167,5.59118891 L91.4549167,5.63929128 C91.4549167,8.82725879 93.5143611,10.2676198 97.9798858,11.2374584 C102.06041,12.0921223 103.032417,13.1195483 103.032417,14.9247421 L103.032417,14.9728444 C103.032417,16.8833892 101.309762,18.2759866 98.7016759,18.2759866 C96.0066759,18.2759866 94.0725093,17.3539116 92.0419228,15.5294092 L90.6852562,17.133386 C93.013929,19.2170315 95.5354414,20.2349725 98.6151019,20.2349725" id="Fill-5" fill="#FEFEFE" sketch:type="MSShapeGroup" mask="url(#mask-4)"></path>
                    </g>
                    <path d="M73.3620216,19.956453 L87.547608,19.956453 L87.547608,17.9686735 L75.5565895,17.9686735 L75.5565895,11.1798033 L86.1617438,11.1798033 L86.1617438,9.19202379 L75.5565895,9.19202379 L75.5565895,2.56643071 L87.4029784,2.56643071 L87.4029784,0.578651163 L73.3620216,0.578651163 L73.3620216,19.956453 Z" id="Fill-8" fill="#FEFEFE" sketch:type="MSShapeGroup"></path>
                    <path d="M60.5144969,19.956453 L62.7280772,19.956453 L62.7280772,2.59522438 L69.2527068,2.59522438 L69.2527068,0.578651163 L53.9891883,0.578651163 L53.9891883,2.59522438 L60.5144969,2.59522438 L60.5144969,19.956453 Z" id="Fill-10" fill="#FEFEFE" sketch:type="MSShapeGroup"></path>
                    <mask id="mask-6" sketch:name="Clip 13" fill="white">
                        <use xlink:href="#path-5"></use>
                    </mask>
                    <g id="Clip-13"></g>
                    <path d="M47.493179,19.9563853 L49.6877469,19.9563853 L49.6877469,0.578583413 L47.493179,0.578583413 L47.493179,19.9563853 Z" id="Fill-12" fill="#FEFEFE" sketch:type="MSShapeGroup" mask="url(#mask-6)"></path>
                    <path d="M36.1950586,20.2349725 C40.0542253,20.2349725 42.8354599,18.0740922 42.8354599,14.7516413 L42.8354599,14.7038777 C42.8354599,11.7367746 40.8337315,10.1619301 36.5029907,9.21140023 C32.229966,8.29914899 31.2291019,7.28120803 31.2291019,5.44722056 L31.2291019,5.38963322 C31.2291019,3.65151173 32.8363241,2.26873803 35.3673426,2.26873803 C37.3595648,2.26873803 39.1687932,2.90253754 40.9681759,4.37169226 L42.2484537,2.68167314 C40.2752438,1.09734374 38.2545031,0.300267176 35.4155525,0.300267176 C31.729534,0.300267176 29.0348735,2.53770479 29.0348735,5.59118891 L29.0348735,5.63929128 C29.0348735,8.82725879 31.0946574,10.2676198 35.5598426,11.2374584 C39.6403673,12.0921223 40.6123735,13.1195483 40.6123735,14.9247421 L40.6123735,14.9728444 C40.6123735,16.8833892 38.8897191,18.2759866 36.2816327,18.2759866 C33.5869722,18.2759866 31.6429599,17.3539116 29.6218796,15.5294092 L28.2553673,17.133386 C30.5938858,19.2170315 33.1153981,20.2349725 36.1950586,20.2349725" id="Fill-14" fill="#FEFEFE" sketch:type="MSShapeGroup" mask="url(#mask-6)"></path>
                    <path d="M16.052463,15.2033632 L16.7936049,15.2033632 L19.5072778,20.9837773 L19.9116296,21.8384412 L18.7953333,22.3472423 L15.2053951,23.9989828 L14.0989444,24.5172689 L13.5886667,23.4034619 L12.0395,20.0715261 L9.4602716,22.6450028 L7.37196914,24.7286483 L7.37196914,21.7808539 L7.37196914,0.550094616 L21.9805802,15.1166434 L21.9805802,0.55957959 L24.4345309,0.55957959 L24.4345309,5.24549549 L24.4345309,17.5654604 L24.4345309,21.012571 L21.056784,17.6420177 L18.6028333,15.2033632 L9.81607407,6.43619847 L9.81607407,18.8330595 L11.5485741,17.104423 L12.7901481,15.8656176 L13.5309506,17.4597707 L15.2923086,21.271714 L16.658821,20.6477382 L14.9456728,16.9316609 L14.1373086,15.2033632 L16.052463,15.2033632 Z" id="Fill-15" fill="#FC6851" sketch:type="MSShapeGroup" mask="url(#mask-6)"></path>
                </g>
            </g>
        </g>
    </g>
</svg>