<?xml version="1.0" encoding="UTF-8" standalone="no"?>
<svg width="48px" height="57px" viewBox="0 0 48 57" version="1.1" xmlns="http://www.w3.org/2000/svg" xmlns:xlink="http://www.w3.org/1999/xlink" xmlns:sketch="http://www.bohemiancoding.com/sketch/ns">
    <!-- Generator: Sketch 3.5.1 (25234) - http://www.bohemiancoding.com/sketch -->
    <title>Untitled</title>
    <desc>Created with Sketch.</desc>
    <defs></defs>
    <g id="Page-1" stroke="none" stroke-width="1" fill="none" fill-rule="evenodd" sketch:type="MSPage">
        <path d="M45.7509565,42.933913 C45.7509565,43.021118 45.6805466,43.091528 45.5933416,43.091528 L37.4244969,43.091528 L37.4244969,21.3658634 L37.4244969,21.1765963 L37.2171429,21.1765963 L26.7234783,11.6014907 L26.7234783,11.1325217 L26.2092919,11.1325217 L12.2002981,11.1325217 L12.2002981,2.09550311 C12.2002981,2.00829814 12.271354,1.9378882 12.359205,1.9378882 L35.0499379,1.9378882 L35.0499379,9.88581366 C35.0499379,11.041441 35.9898137,11.9813168 37.144795,11.9813168 L45.7509565,11.9813168 L45.7509565,42.933913 Z M26.7234783,14.2247453 L34.3419627,21.1765963 L26.8804472,21.1765963 C26.7938882,21.1765963 26.7234783,21.1055404 26.7234783,21.0189814 L26.7234783,14.2247453 Z M35.4866087,54.0670807 C35.4866087,54.1542857 35.4161988,54.2246957 35.3289938,54.2246957 L2.09485714,54.2246957 C2.00829814,54.2246957 1.9378882,54.1542857 1.9378882,54.0670807 L1.9378882,13.2280248 C1.9378882,13.1408199 2.00829814,13.0704099 2.09485714,13.0704099 L10.2624099,13.0704099 L24.7855901,13.0704099 L24.7855901,21.0189814 C24.7855901,22.1746087 25.7254658,23.1144845 26.8804472,23.1144845 L35.4866087,23.1144845 L35.4866087,45.0294161 L35.4866087,54.0670807 Z M44.6063106,10.0434286 L37.144795,10.0434286 C37.0575901,10.0434286 36.9878261,9.97301863 36.9878261,9.88581366 L36.9878261,3.0922236 L44.6063106,10.0434286 Z M36.9878261,0.468968944 L36.9878261,0 L36.4729938,0 L12.359205,0 C11.2029317,0 10.2624099,0.939875776 10.2624099,2.09550311 L10.2624099,11.1325217 L2.09485714,11.1325217 C0.939875776,11.1325217 0,12.0723975 0,13.2280248 L0,54.0670807 C0,55.2227081 0.939875776,56.1625839 2.09485714,56.1625839 L35.3289938,56.1625839 C36.4846211,56.1625839 37.4244969,55.2227081 37.4244969,54.0670807 L37.4244969,45.0294161 L45.5933416,45.0294161 C46.7489689,45.0294161 47.6888447,44.0895404 47.6888447,42.933913 L47.6888447,10.2326957 L47.6888447,10.0434286 L47.4814907,10.0434286 L36.9878261,0.468968944 Z" id="Fill-3" fill="#FFFFFF" sketch:type="MSShapeGroup"></path>
    </g>
</svg>