<?xml version="1.0" encoding="UTF-8" standalone="no"?>
<svg width="63px" height="58px" viewBox="0 0 63 58" version="1.1" xmlns="http://www.w3.org/2000/svg" xmlns:xlink="http://www.w3.org/1999/xlink" xmlns:sketch="http://www.bohemiancoding.com/sketch/ns">
    <!-- Generator: Sketch 3.5.1 (25234) - http://www.bohemiancoding.com/sketch -->
    <title>Untitled</title>
    <desc>Created with Sketch.</desc>
    <defs></defs>
    <g id="Page-1" stroke="none" stroke-width="1" fill="none" fill-rule="evenodd" sketch:type="MSPage">
        <g id="Group-5" sketch:type="MSLayerGroup" fill="#FFFFFF">
            <path d="M31.625277,50.3134559 C30.0458981,50.3134559 28.436159,50.2049342 26.8406311,49.9911205 C26.5693267,49.9549466 26.2967304,50.0344 26.0874385,50.2101019 C23.9499478,52.011046 20.6574758,54.1162385 16.3321093,54.9146484 C17.4367056,53.6763379 18.6666186,51.8269466 19.5328547,49.1707478 C19.6924075,48.683046 19.4437118,48.1552944 18.9650534,47.9679652 C8.80082981,43.9868969 2.23332671,35.4634186 2.23332671,26.2552199 C2.23332671,12.9890832 15.418718,2.19698385 31.625277,2.19698385 C47.831836,2.19698385 61.0172273,12.9890832 61.0172273,26.2552199 C61.0172273,39.5207106 47.831836,50.3134559 31.625277,50.3134559 M31.625277,0.259095652 C14.3496497,0.259095652 0.295438509,11.9206609 0.295438509,26.2552199 C0.295438509,35.9982758 6.97275528,45.0023503 17.3889043,49.4175056 C15.6861466,53.8223255 12.9123826,55.3144994 12.8600596,55.3416298 C12.4569789,55.5464 12.2489789,56.0030957 12.3594385,56.4417043 C12.4679602,56.8732075 12.8561839,57.1742261 13.2986683,57.1742261 L13.3257988,57.1742261 C19.4960348,57.0024 24.1237118,54.3093814 27.0053516,51.9664745 C28.5472646,52.1557416 30.099513,52.2513441 31.625277,52.2513441 C48.9009043,52.2513441 62.9551155,40.5897789 62.9551155,26.2552199 C62.9551155,11.9206609 48.9009043,0.259095652 31.625277,0.259095652" id="Fill-3" sketch:type="MSShapeGroup"></path>
            <path d="M16.3076273,28.9790509 C15.1830062,28.9790509 14.267677,28.0637217 14.267677,26.9391006 C14.267677,25.8144795 15.1830062,24.8991503 16.3076273,24.8991503 C17.4322484,24.8991503 18.3475776,25.8144795 18.3475776,26.9391006 C18.3475776,28.0637217 17.4322484,28.9790509 16.3076273,28.9790509 M16.3076273,22.9612621 C14.1145839,22.9612621 12.3297888,24.7454112 12.3297888,26.9391006 C12.3297888,29.1321441 14.1145839,30.9169391 16.3076273,30.9169391 C18.5006708,30.9169391 20.2854658,29.1321441 20.2854658,26.9391006 C20.2854658,24.7454112 18.5006708,22.9612621 16.3076273,22.9612621" id="Fill-5" sketch:type="MSShapeGroup"></path>
            <path d="M31.8984547,28.9790509 C30.7738335,28.9790509 29.8585043,28.0637217 29.8585043,26.9391006 C29.8585043,25.8144795 30.7738335,24.8991503 31.8984547,24.8991503 C33.0230758,24.8991503 33.938405,25.8144795 33.938405,26.9391006 C33.938405,28.0637217 33.0230758,28.9790509 31.8984547,28.9790509 M31.8984547,22.9612621 C29.7047652,22.9612621 27.9206161,24.7454112 27.9206161,26.9391006 C27.9206161,29.1321441 29.7047652,30.9169391 31.8984547,30.9169391 C34.0914981,30.9169391 35.8762932,29.1321441 35.8762932,26.9391006 C35.8762932,24.7454112 34.0914981,22.9612621 31.8984547,22.9612621" id="Fill-7" sketch:type="MSShapeGroup"></path>
            <path d="M47.4898634,28.9790509 C46.3645963,28.9790509 45.4492671,28.0637217 45.4492671,26.9391006 C45.4492671,25.8144795 46.3645963,24.8991503 47.4898634,24.8991503 C48.6144845,24.8991503 49.5298137,25.8144795 49.5298137,26.9391006 C49.5298137,28.0637217 48.6144845,28.9790509 47.4898634,28.9790509 M47.4898634,22.9612621 C45.2961739,22.9612621 43.5113789,24.7454112 43.5113789,26.9391006 C43.5113789,29.1321441 45.2961739,30.9169391 47.4898634,30.9169391 C49.6829068,30.9169391 51.4677019,29.1321441 51.4677019,26.9391006 C51.4677019,24.7454112 49.6829068,22.9612621 47.4898634,22.9612621" id="Fill-9" sketch:type="MSShapeGroup"></path>
        </g>
    </g>
</svg>