<?xml version="1.0" encoding="UTF-8" standalone="no"?>
<svg width="49px" height="46px" viewBox="0 0 49 46" version="1.1" xmlns="http://www.w3.org/2000/svg" xmlns:xlink="http://www.w3.org/1999/xlink" xmlns:sketch="http://www.bohemiancoding.com/sketch/ns">
    <!-- Generator: Sketch 3.5.1 (25234) - http://www.bohemiancoding.com/sketch -->
    <title>Untitled</title>
    <desc>Created with Sketch.</desc>
    <defs></defs>
    <g id="Page-1" stroke="none" stroke-width="1" fill="none" fill-rule="evenodd" sketch:type="MSPage">
        <path d="M42.0116499,23.4238305 C37.7121219,29.3595821 31.8325691,35.7643026 24.5267306,42.4726256 C11.7418362,31.5313088 4.34685483,22.7584889 2.54332688,16.3899423 C2.0853393,14.7711597 1.88573682,13.0910106 1.95033309,11.3940665 C2.68091694,6.84325909 5.18402253,4.02363176 9.59982378,2.77433984 C11.9543579,2.1077063 14.6699853,2.32668766 17.6859853,3.42353238 C19.7466064,4.72579325 21.556594,6.80579325 23.0668548,9.60862555 L23.4356996,10.294638 L24.7179356,9.92966903 L24.9110784,9.5679299 C27.0220846,5.6262653 29.3016871,3.28529636 31.6865815,2.6102653 L33.0263082,2.23043922 C34.1728921,1.904874 35.7257865,1.86288642 37.3213145,2.06055102 C41.9864573,2.92678704 44.7808921,5.2050976 45.8628797,9.02402928 L45.979153,9.43809139 C46.9409915,12.8339175 45.6070784,17.539756 42.0116499,23.4238305 L42.0116499,23.4238305 Z M47.7284201,8.49821561 C46.4423082,3.96161934 43.0600474,1.1542653 37.6191033,0.146563439 C35.6179107,-0.10600799 33.9002958,-0.0317222755 32.4979107,0.366190768 L31.158184,0.746016855 C28.5174884,1.49339574 26.1564946,3.64315971 23.9679728,7.30060071 C22.4376871,4.84917213 20.6451405,2.97717213 18.6245691,1.7246504 L18.4501592,1.63938331 C15.0052399,0.369420582 11.8458362,0.125246669 9.07271819,0.909445426 C3.90824614,2.37061313 0.86446974,5.81488642 0.0273020378,11.1479547 L0.0156747086,11.2577684 C-0.0637787076,13.1801535 0.159078435,15.0838057 0.678432473,16.9183398 C2.64668092,23.866315 10.2490163,32.8891224 23.9214635,44.5041783 L24.5706561,45.0551846 L25.2011157,44.4822156 C32.910035,37.4631846 39.1015878,30.7503398 43.603302,24.5290728 L43.6446437,24.4670603 C47.6031033,17.9983895 48.9764201,12.9094951 47.8440474,8.91163176 L47.7284201,8.49821561 Z" id="Fill-1" fill="#F7F7F7" sketch:type="MSShapeGroup"></path>
    </g>
</svg>