<?xml version="1.0" encoding="UTF-8" standalone="no"?>
<svg width="54px" height="55px" viewBox="0 0 54 55" version="1.1" xmlns="http://www.w3.org/2000/svg" xmlns:xlink="http://www.w3.org/1999/xlink" xmlns:sketch="http://www.bohemiancoding.com/sketch/ns">
    <!-- Generator: Sketch 3.5.1 (25234) - http://www.bohemiancoding.com/sketch -->
    <title>Untitled</title>
    <desc>Created with Sketch.</desc>
    <defs></defs>
    <g id="Page-1" stroke="none" stroke-width="1" fill="none" fill-rule="evenodd" sketch:type="MSPage">
        <g id="Group" sketch:type="MSLayerGroup" fill="#FFFFFF">
            <path d="M34.4285714,19.8843329 C34.0500373,19.5057988 33.4370186,19.5057988 33.0584845,19.8843329 L27.0064596,25.9370037 L20.9544348,19.8843329 C20.5759006,19.5057988 19.962236,19.5057988 19.5843478,19.8843329 C19.2058137,20.2628671 19.2058137,20.8765317 19.5843478,21.2544199 L25.6363727,27.3070907 L19.5843478,33.3591155 C19.2058137,33.7370037 19.2058137,34.3513143 19.5843478,34.7292025 C19.7736149,34.9184696 20.0210186,35.0127801 20.2690683,35.0127801 C20.517118,35.0127801 20.7651677,34.9184696 20.9544348,34.7292025 L27.0064596,28.6771776 L33.0584845,34.7292025 C33.2477516,34.9184696 33.4958012,35.0127801 33.743205,35.0127801 C33.9912547,35.0127801 34.2393043,34.9184696 34.4285714,34.7292025 C34.8071056,34.3513143 34.8071056,33.7370037 34.4285714,33.3591155 L28.3765466,27.3070907 L34.4285714,21.2544199 C34.8071056,20.8765317 34.8071056,20.2628671 34.4285714,19.8843329" id="Fill-1" sketch:type="MSShapeGroup"></path>
            <path d="M26.8448398,52.3376944 C13.1316969,52.3376944 1.97527453,41.181272 1.97527453,27.4681292 C1.97527453,13.7549863 13.1316969,2.59856398 26.8448398,2.59856398 C40.5579826,2.59856398 51.714405,13.7549863 51.714405,27.4681292 C51.714405,41.181272 40.5579826,52.3376944 26.8448398,52.3376944 M26.8448398,0.660675776 C12.0632745,0.660675776 0.0373863354,12.686564 0.0373863354,27.4681292 C0.0373863354,42.2496944 12.0632745,54.2755826 26.8448398,54.2755826 C41.626405,54.2755826 53.6522932,42.2496944 53.6522932,27.4681292 C53.6522932,12.686564 41.626405,0.660675776 26.8448398,0.660675776" id="Fill-3" sketch:type="MSShapeGroup"></path>
        </g>
    </g>
</svg>