<?xml version="1.0" encoding="UTF-8" standalone="no"?>
<svg width="65px" height="41px" viewBox="0 0 65 41" version="1.1" xmlns="http://www.w3.org/2000/svg" xmlns:xlink="http://www.w3.org/1999/xlink" xmlns:sketch="http://www.bohemiancoding.com/sketch/ns">
    <!-- Generator: Sketch 3.5.1 (25234) - http://www.bohemiancoding.com/sketch -->
    <title>Untitled</title>
    <desc>Created with Sketch.</desc>
    <defs>
        <path id="path-1" d="M0,0.195823348 L64.1044261,0.195823348 L64.1044261,40.1819338 L0,40.1819338"></path>
    </defs>
    <g id="Page-1" stroke="none" stroke-width="1" fill="none" fill-rule="evenodd" sketch:type="MSPage">
        <g id="Group-3" sketch:type="MSLayerGroup">
            <mask id="mask-2" sketch:name="Clip 2" fill="white">
                <use xlink:href="#path-1"></use>
            </mask>
            <g id="Clip-2"></g>
            <path d="M32.2499183,38.6560376 L32.0301893,38.6545117 L31.8567457,38.6560376 C29.8517181,38.6560376 12.0663804,38.1367242 1.63382795,20.1881156 C12.0653631,2.24103291 29.8507008,1.72171957 31.8562371,1.72171957 L32.0759662,1.72324546 L32.250427,1.72171957 C34.2539287,1.72171957 52.0138348,2.24255881 62.4723275,20.1870984 C52.0402837,38.1357069 34.2544373,38.6560376 32.2499183,38.6560376 M63.9885597,19.7639165 C53.1577483,0.744637355 34.3587069,0.195823348 32.250427,0.195823348 C32.1405624,0.195823348 32.0708798,0.197349244 32.0632504,0.197857876 C32.0357842,0.197349244 31.965593,0.195823348 31.8562371,0.195823348 C29.7484658,0.195823348 10.9575625,0.745654619 0.124716584,19.7512007 C-0.0482183205,20.0365433 -0.0390629432,20.3844476 0.138958282,20.6504622 C10.9743473,39.6331198 29.7499917,40.1819338 31.8567457,40.1819338 C31.9661016,40.1819338 32.0362929,40.1804079 32.0434137,40.1798993 C32.0708798,40.1804079 32.1400538,40.1819338 32.2499183,40.1819338 C34.3602328,40.1819338 53.158257,39.6321025 64.0038187,20.58434 C64.1477615,20.3040837 64.1330112,19.9821196 63.9885597,19.7639165" id="Fill-1" stroke="#FDFBF2" stroke-width="0.4" fill="#FFFFFF" sketch:type="MSShapeGroup" mask="url(#mask-2)"></path>
        </g>
        <path d="M32.0502802,32.0805438 C25.4924869,32.0805438 20.1579537,26.7460107 20.1579537,20.1882173 C20.1579537,13.6309327 25.4924869,8.29589084 32.0502802,8.29589084 C38.6080736,8.29589084 43.9426067,13.6309327 43.9426067,20.1882173 C43.9426067,26.7460107 38.6080736,32.0805438 32.0502802,32.0805438 M32.0502802,6.76999462 C24.6512095,6.76999462 18.6320575,12.7891466 18.6320575,20.1882173 C18.6320575,27.5872881 24.6512095,33.6064401 32.0502802,33.6064401 C39.449351,33.6064401 45.468503,27.5872881 45.468503,20.1882173 C45.468503,12.7891466 39.449351,6.76999462 32.0502802,6.76999462" id="Fill-4" stroke="#FFFFFF" stroke-width="0.4" fill="#FFFFFF" sketch:type="MSShapeGroup"></path>
        <path d="M32.0502802,25.7057563 C29.0076432,25.7057563 26.5326395,23.2307527 26.5326395,20.1881156 C26.5326395,17.1459872 29.0076432,14.6709835 32.0502802,14.6709835 C35.0924087,14.6709835 37.567921,17.1459872 37.567921,20.1881156 C37.567921,23.2307527 35.0924087,25.7057563 32.0502802,25.7057563 M32.0502802,13.1450873 C28.1663657,13.1450873 25.0067433,16.3047097 25.0067433,20.1881156 C25.0067433,24.0720301 28.1663657,27.2316526 32.0502802,27.2316526 C35.9341947,27.2316526 39.0938172,24.0720301 39.0938172,20.1881156 C39.0938172,16.3047097 35.9341947,13.1450873 32.0502802,13.1450873" id="Fill-6" stroke="#FFFFFF" stroke-width="0.4" fill="#FFFFFF" sketch:type="MSShapeGroup"></path>
    </g>
</svg>