<?xml version="1.0" encoding="UTF-8" standalone="no"?>
<svg width="45px" height="59px" viewBox="0 0 45 59" version="1.1" xmlns="http://www.w3.org/2000/svg" xmlns:xlink="http://www.w3.org/1999/xlink" xmlns:sketch="http://www.bohemiancoding.com/sketch/ns">
    <!-- Generator: Sketch 3.5.1 (25234) - http://www.bohemiancoding.com/sketch -->
    <title>Slice 1</title>
    <desc>Created with Sketch.</desc>
    <defs></defs>
    <g id="Page-1" stroke="none" stroke-width="1" fill="none" fill-rule="evenodd" sketch:type="MSPage">
        <path d="M39.8555147,26.8875528 C36.851142,31.858882 31.5846079,34.8270807 25.7677134,34.8270807 C22.7833656,34.8270807 19.848111,34.0067081 17.2797631,32.4538137 C13.520906,30.1832547 10.8724588,26.5839503 9.82083145,22.3199503 C8.76920412,18.0553043 9.44100537,13.6369193 11.7128563,9.87806211 C14.717229,4.90673292 19.9837631,1.9378882 25.8006575,1.9378882 C28.7850054,1.9378882 31.7196141,2.75826087 34.2879619,4.31115528 C42.0472662,9.00019876 44.5445582,19.1276025 39.8555147,26.8875528 M12.7018252,43.765913 L5.33462027,55.9571677 C5.16473207,56.2388075 4.77715443,56.3376398 4.49099294,56.1645217 L2.23399915,54.8008944 C1.94396189,54.6258385 1.85094325,54.2473043 2.02535319,53.9572671 L9.39320412,41.7666584 C9.50560164,41.5806211 9.70262027,41.4695155 9.92095568,41.4695155 C10.0333532,41.4695155 10.139937,41.4998758 10.2361855,41.5580124 L12.4944712,42.9235776 C12.6339992,43.0081988 12.7334774,43.142559 12.7722352,43.3014658 C12.8116389,43.4603727 12.7864464,43.6257391 12.7018252,43.765913 M35.290496,2.65232298 C32.4198377,0.917267081 29.138347,0 25.8006575,0 C19.2990426,0 13.4123842,3.31831056 10.053378,8.87617391 C7.5147445,13.0775155 6.76348984,18.0171925 7.93914201,22.7831056 C9.03663269,27.2357267 11.6928315,31.0378634 15.461378,33.5894161 L11.5384464,40.0806957 L11.2387197,39.8998261 C10.8401606,39.659528 10.3847569,39.5316273 9.92095568,39.5316273 C9.03211096,39.5316273 8.19429729,40.004472 7.73437183,40.7647702 L0.366520894,52.9560248 C-0.360187181,54.1600994 0.0273904589,55.7310807 1.23146499,56.4590807 L3.48910474,57.824 C3.88701779,58.0642981 4.34242151,58.1915528 4.80686872,58.1915528 C5.69506748,58.1915528 6.53288114,57.72 6.99280661,56.9597019 L14.3606575,44.7678012 C14.7127072,44.1838509 14.8167072,43.4984845 14.6539246,42.8370186 C14.490496,42.1755528 14.0796638,41.616795 13.4963594,41.2653913 L13.1966327,41.0838758 L17.1240861,34.5861366 C19.7860985,36.0098385 22.7523594,36.7649689 25.7677134,36.7649689 C32.2693283,36.7649689 38.1553408,33.4473043 41.514347,27.889441 C46.7556886,19.2154534 43.9631917,7.89431056 35.290496,2.65232298" id="Fill-3" fill="#FFFFFF" sketch:type="MSShapeGroup"></path>
    </g>
</svg>