<svg id="Layer_1" data-name="Layer 1" xmlns="http://www.w3.org/2000/svg" viewBox="0 0 314.51 95.85"><defs><style>.cls-1{fill:#fff;}</style></defs><title>logo_silktide</title><path class="cls-1" d="M82.55,46.2L65.66,36.45,82.55,26.7a2,2,0,0,0,0-3.46l-39.77-23a2,2,0,0,0-2,0L1,23.23A2,2,0,0,0,0,25v23a2,2,0,0,0,1,1.73l16.89,9.75L1,69.16a2,2,0,0,0,0,3.46l39.78,23a2,2,0,0,0,2,0l39.77-23a2,2,0,0,0,1-1.73v-23A2,2,0,0,0,82.55,46.2Zm-3,2.89V67.42L59.18,55.67,45.78,47.93l15.89-9.17ZM43.78,28.43l13.88,8-13.88,8v-16Zm-4,39-13.89-8,13.89-8v16Zm2-63.12L77.55,25,61.66,34.14,42.78,23.23a2,2,0,0,0-3,1.73v19.5L6,25ZM4,46.77V28.43l1.74,1,32,18.49L21.89,57.1ZM41.78,91.54L6,70.89l15.89-9.17,18.89,10.9a2,2,0,0,0,3-1.73V51.39l33.77,19.5Z"/><rect class="cls-1" x="148.32" y="25.64" width="8.4" height="44.15"/><rect class="cls-1" x="134.54" y="37.03" width="8.39" height="32.76"/><polygon class="cls-1" points="192.83 37.03 181.25 37.03 170.5 48.93 170.5 25.64 162.1 25.64 162.1 69.8 170.5 69.8 170.5 60.38 174.69 55.99 182.84 69.8 193.52 69.8 180.61 49.82 192.83 37.03"/><rect class="cls-1" x="134.54" y="25.64" width="8.39" height="7.83"/><path class="cls-1" d="M253,25.29V39.8A13.77,13.77,0,0,0,243.36,36c-8.52,0-15.58,7.38-15.58,17.12s7.06,17,15.58,17a13.75,13.75,0,0,0,10.06-4.2v3.5h8V25.29H253Zm-8.4,37.09c-4.64,0-8.4-4-8.4-9.22s3.75-9.41,8.4-9.41,8.4,4.2,8.4,9.41S249.28,62.38,244.63,62.38Z"/><path class="cls-1" d="M281.78,36.21a17.18,17.18,0,0,0,0,34.35c8.14,0,13.93-4.52,15.84-11.2h-9a7.6,7.6,0,0,1-6.93,3.82,8.34,8.34,0,0,1-8.21-6.49h24.75C299.47,43.71,291.45,36.21,281.78,36.21Zm-8.14,13.62a8.38,8.38,0,0,1,8.08-6.24,8.21,8.21,0,0,1,8.2,6.24H273.64Z"/><path class="cls-1" d="M204.65,55.84V44.26h5.91V36.82h-5.91V25.43h-8.4V55.78c0,9,5.09,14.76,14.7,13.74V61.88C206.75,62.14,204.65,60.42,204.65,55.84Z"/><rect class="cls-1" x="215.81" y="25.46" width="8.4" height="7.83"/><rect class="cls-1" x="215.81" y="36.84" width="8.4" height="32.76"/><path class="cls-1" d="M114.92,70.56c-8.28,0-14.41-4.36-15.42-11.38H108c1.14,2.78,4.49,3.79,7,3.79,3.35,0,5.87-1,5.87-2.9s-1.14-2.59-6.83-3.47-13.58-2.47-13.58-9.73c0-5.12,4.49-10.43,13.9-10.43,7.45,0,13,4,14.09,10.17h-8.66c-0.51-1.52-2.34-2.71-5.43-2.71-3.86,0-5.44,1.39-5.44,2.59,0,1.71,2.4,2.27,6.44,2.9,8.09,1.33,13.91,3.1,13.91,10.18C129.21,66,123.26,70.56,114.92,70.56Z"/><path class="cls-1" d="M307.46,38.92a7.06,7.06,0,1,1,7.06-7.06A7.06,7.06,0,0,1,307.46,38.92Zm0-13.43a6.36,6.36,0,1,0,6.34,6.37A6.34,6.34,0,0,0,307.46,25.49Zm3.29,10.29h-0.84l-1.79-3.25h-2.55v3.25h-0.72V28h3.51a2.28,2.28,0,0,1,.53,4.52Zm-2.4-7.11h-2.79v3.16h2.83a1.55,1.55,0,0,0,1.68-1.58A1.5,1.5,0,0,0,308.35,28.67Z"/></svg>